<?xml version="1.0" encoding="utf-8"?>
<!-- Generator: Adobe Illustrator 25.2.0, SVG Export Plug-In . SVG Version: 6.00 Build 0)  -->
<svg version="1.1" id="Camada_1" xmlns="http://www.w3.org/2000/svg" xmlns:xlink="http://www.w3.org/1999/xlink" x="0px" y="0px"
	 viewBox="0 0 917 556" style="enable-background:new 0 0 917 556;" xml:space="preserve">
<style type="text/css">
	.st0{fill:#2A4383;}
</style>
<g>
	<path class="st0" d="M414.21,144.92c-24.69,24.69-24.69,64.71,0,89.34c24.63,24.68,64.65,24.68,89.32,0
		c24.7-24.62,24.7-64.64,0-89.34C478.86,120.24,438.84,120.24,414.21,144.92"/>
	<path class="st0" d="M458.87,63.23v63.21h126.36v63.14c0,69.82-56.61,126.42-126.36,126.42c-69.8,0-126.36-56.61-126.36-126.42
		C332.51,119.84,389.07,63.23,458.87,63.23V0C354.21,0,269.31,84.91,269.31,189.58c0,104.75,84.9,189.52,189.56,189.52
		c104.68,0,189.57-84.76,189.57-189.52V63.23H458.87z"/>
	<path class="st0" d="M855.08,507.96l12.64-44.21l12.65,44.21H855.08z M917.16,552.33c-0.66-2.81-3.58-10.97-36.27-104.69
		c-0.18-0.53-0.4-1.06-0.62-1.5c0-0.04-0.03-0.09-0.08-0.18c-1.06-2.12-3.18-3.61-5.68-3.7h-13.57c-2.52,0.09-4.63,1.59-5.69,3.7
		c-0.04,0.09-0.09,0.13-0.09,0.18c-0.21,0.44-0.44,0.97-0.62,1.5c-32.69,93.71-35.6,101.88-36.26,104.69
		c-0.12,0.4-0.26,0.85-0.26,1.24c0,1.41,1.27,2.42,2.6,2.33h17.93c1.05-0.05,1.98-0.71,2.34-1.63l9.34-29.08h34.98l9.34,29.08
		c0.35,0.92,1.27,1.58,2.33,1.63h17.94c1.32,0.09,2.6-0.92,2.6-2.33C917.42,553.18,917.29,552.73,917.16,552.33"/>
	<path class="st0" d="M517.39,507.96l12.65-44.21l12.64,44.21H517.39z M561.41,499.79c-4.71-13.49-10.66-30.55-18.21-52.15
		c-0.18-0.53-0.39-1.06-0.61-1.5c0-0.05-0.05-0.09-0.09-0.18c-1.05-2.12-3.17-3.61-5.68-3.7h-13.57c-2.51,0.09-4.63,1.59-5.69,3.7
		c-0.04,0.09-0.08,0.13-0.08,0.18c-0.22,0.44-0.44,0.97-0.62,1.5c-32.69,93.71-35.6,101.87-36.26,104.69
		c-0.12,0.41-0.26,0.84-0.26,1.24c0,1.41,1.27,2.42,2.6,2.33h17.93c1.05-0.04,1.98-0.7,2.33-1.63l9.35-29.08h34.97l9.34,29.08
		c0.35,0.92,1.28,1.58,2.33,1.63h17.94c1.32,0.09,2.6-0.92,2.6-2.33c0-0.4-0.13-0.83-0.26-1.24
		C578.96,550.16,577.13,544.83,561.41,499.79"/>
	<path class="st0" d="M582.84,543.01c0-2.11,0.09-1.82,2.38-5.26l51.14-77.23h-39.48c-1.91,0-3.44-1.52-3.44-3.43V445.7
		c0-1.91,1.53-3.44,3.44-3.44h65.16c1.91,0,3.44,1.62,3.44,3.53v10.8c0,3.16-0.76,3.91-2,6.12l-49.58,75.02h48.14
		c1.91,0,3.44,1.52,3.44,3.44v11.37c0,1.91-1.53,3.44-3.44,3.44h-75.77c-1.91,0-3.44-1.53-3.44-3.44V543.01z"/>
	<path class="st0" d="M34.44,488.81h-9.56v-29.06h11.19c11.56,0,14.72,5.93,15.1,14.14C51.65,483.17,45.63,488.81,34.44,488.81
		 M88.1,554.12c-0.02-0.3-0.11-0.59-0.25-0.83c0,0-0.01-0.02-0.02-0.03l-0.02-0.02c-0.56-0.89-0.56-0.89-0.9-1.45L52.7,499.13
		c6.02-0.39,25.71-6.69,24.47-29.73c-0.95-18.35-12.81-27.14-35.17-27.14H3.67c-1.91,0-3.34,1.43-3.34,3.34v106.96
		c0,1.92,1.53,3.44,3.44,3.44h17.68c1.91,0,3.44-1.52,3.44-3.44v-47.12h4.01l29.64,48.74c0.12,0.21,0.25,0.38,0.39,0.55
		c0.02,0.02,0.03,0.04,0.05,0.06c0.01,0.01,0.03,0.03,0.04,0.04c0.08,0.09,0.18,0.19,0.27,0.28c0.67,0.61,1.48,0.89,2.49,0.89h24.5
		h0.11c0.95-0.06,1.71-0.84,1.71-1.81V554.12z"/>
	<path class="st0" d="M94.18,445.7c0-1.9,1.53-3.44,3.44-3.44h61.17c1.91,0,3.44,1.54,3.44,3.44v11.47c0,1.91-1.53,3.43-3.44,3.43
		h-40.14v25.9h30.78c1.91,0,3.44,1.54,3.44,3.45v11.47c0,1.91-1.53,3.43-3.44,3.43h-30.78v32.69h40.23c1.91,0,3.45,1.53,3.45,3.44
		v11.47c0,1.91-1.54,3.44-3.45,3.44H97.62c-1.91,0-3.44-1.54-3.44-3.44V445.7z"/>
	<path class="st0" d="M753.52,442.26c-1.9,0-3.44,1.53-3.44,3.44v11.47c0,1.91,1.54,3.43,3.44,3.43h25.71v91.85
		c0,1.91,1.53,3.44,3.44,3.44h17.58c1.92,0,3.44-1.53,3.44-3.44v-91.85h31.26c1.91,0,3.44-1.53,3.44-3.43V445.7
		c0-1.91-1.53-3.44-3.44-3.44H753.52z"/>
	<path class="st0" d="M204.66,538.41H193v-78.75h13.48c20.17,0,31.15,13.47,32.4,36.23C240.3,523.88,225.68,538.41,204.66,538.41
		 M264.97,493.49c-1.73-32.21-21.23-51.23-57.45-51.23h-35.56c-1.9,0-3.43,1.53-3.43,3.44v106.76c0,1.92,1.54,3.45,3.43,3.45h40.24
		C239.35,555.9,267.16,534.88,264.97,493.49"/>
	<path class="st0" d="M450.24,502.38v36.02h-13.66c-20.08,0-31.07-13.47-32.31-36.22c-1.44-28.01,13.19-42.53,34.12-42.53h8.13h3.63
		h21.12c1.91,0,3.44-1.53,3.44-3.45V445.7c0-1.91-1.53-3.44-3.44-3.44h-40.43c-27.05,0-54.86,20.93-52.65,62.41
		c1.63,32.12,21.22,51.23,57.44,51.23h35.65c1.91,0,3.44-1.53,3.44-3.44v-50.08c0-1.92-1.53-3.44-3.44-3.44h-17.59
		C451.77,498.94,450.24,500.47,450.24,502.38"/>
	<path class="st0" d="M273.28,445.7c0-1.9,1.52-3.44,3.43-3.44h61.18c1.9,0,3.44,1.54,3.44,3.44v11.47c0,1.91-1.54,3.43-3.44,3.43
		h-40.15v25.91h30.78c1.91,0,3.44,1.53,3.44,3.44v11.47c0,1.91-1.53,3.43-3.44,3.43h-30.78v32.69h40.24c1.91,0,3.44,1.53,3.44,3.44
		v11.47c0,1.91-1.54,3.44-3.44,3.44h-61.27c-1.91,0-3.43-1.54-3.43-3.44V445.7z"/>
	<path class="st0" d="M673.67,445.7c0-1.9,1.53-3.44,3.44-3.44h61.17c1.91,0,3.44,1.54,3.44,3.44v11.47c0,1.91-1.53,3.43-3.44,3.43
		h-40.14v25.91h30.77c1.91,0,3.44,1.53,3.44,3.44v11.47c0,1.91-1.53,3.43-3.44,3.43h-30.77v32.69h40.23c1.91,0,3.44,1.53,3.44,3.44
		v11.47c0,1.91-1.53,3.44-3.44,3.44h-61.26c-1.91,0-3.44-1.54-3.44-3.44V445.7z"/>
</g>
</svg>
