<svg width="78" height="32" viewBox="0 0 78 32" fill="none" xmlns="http://www.w3.org/2000/svg">
<g clip-path="url(#clip0_1363_49204)">
<path d="M53.3103 7.95676C51.2693 7.95676 49.9893 8.71784 48.7438 10.6551C47.8444 8.57946 46.253 7.99135 44.7309 7.99135C43.5547 7.99135 41.9979 8.37189 41.133 9.92865L40.9255 8.78703C40.8909 8.51027 40.6141 8.3027 40.3374 8.3027H37.9157C37.6044 8.3027 37.3276 8.57946 37.3276 8.89081V22.0022C37.3276 22.3135 37.6044 22.5903 37.9157 22.5903H40.7179C41.0293 22.5903 41.306 22.3135 41.306 22.0022V14.9449C41.306 13.3189 42.1363 11.7968 43.7276 11.7968C45.3536 11.7968 46.1493 13.0422 46.1493 14.9103V22.0022C46.1493 22.3135 46.426 22.5903 46.7374 22.5903H49.5049C49.8163 22.5903 50.093 22.3135 50.093 22.0022V14.9449C50.093 13.3189 50.8195 11.9005 52.4109 11.9005C54.0368 11.9005 54.7287 13.0768 54.7287 14.8757V22.0022C54.7287 22.3135 55.0055 22.5903 55.3168 22.5903H58.1536C58.4649 22.5903 58.7417 22.3135 58.7417 22.0022V14.7719C58.7763 9.44432 56.1817 7.95676 53.3103 7.95676Z" fill="#F26322"/>
<path d="M27.8833 7.85297C26.1882 7.85297 24.5622 8.37189 23.3514 9.89406V2.00649C23.3514 1.66054 23.0746 1.41838 22.7633 1.41838H19.719C19.373 1.41838 19.1309 1.69514 19.1309 2.00649V22.0022C19.1309 22.3481 19.4076 22.5903 19.719 22.5903H22.3828C22.6941 22.5903 22.9363 22.3827 22.9709 22.0714L23.1784 20.7568C24.5276 22.4865 26.1536 22.9016 27.9871 22.9016C32.2422 22.9016 35.1136 19.8919 35.1136 15.3946C35.079 10.6897 32.1384 7.85297 27.8833 7.85297ZM27.4336 19.0962C25.3925 19.0962 23.7319 17.4357 23.7319 15.3946C23.7319 13.3535 25.3925 11.693 27.4336 11.693C29.4746 11.693 31.1352 13.3535 31.1352 15.3946C31.1698 17.4357 29.5092 19.0962 27.4336 19.0962Z" fill="#F26322"/>
<path d="M50.5775 1.17622C49.9548 1.17622 49.5396 1.45297 49.3321 1.76432V0.622703V0.415135V0.103784C49.3321 0.0345946 49.2975 0 49.2283 0H48.9169H48.8478H48.5364C48.4672 0 48.4326 0.0345946 48.4326 0.103784V0.622703V4.35892V4.80865V5.12C48.4326 5.18919 48.4672 5.22378 48.5364 5.22378H49.1591C49.2283 5.22378 49.2629 5.18919 49.2629 5.12V4.80865V4.56649C49.505 4.98162 49.9894 5.22378 50.5775 5.22378C51.7537 5.22378 52.411 4.28973 52.411 3.1827C52.411 2.07568 51.7537 1.17622 50.5775 1.17622ZM50.4045 4.42811C49.7126 4.42811 49.2975 3.87459 49.2975 3.1827C49.2975 2.45622 49.7126 1.9373 50.4045 1.9373C51.0964 1.9373 51.5115 2.49081 51.5115 3.1827C51.5115 3.90919 51.0964 4.42811 50.4045 4.42811Z" fill="#F26322"/>
<path d="M60.1949 1.17622C59.5376 1.17622 59.1571 1.48758 58.9841 1.76433V1.38379C58.9841 1.3146 58.9495 1.28001 58.8803 1.28001H58.6035H58.5689H58.5343H58.2576C58.1884 1.28001 58.1538 1.3146 58.1538 1.38379V1.69514V1.86812V4.63568V4.84325V5.1546C58.1538 5.22379 58.1884 5.25839 58.2576 5.25839H58.5689H58.6381H58.9495C59.0187 5.25839 59.0533 5.22379 59.0533 5.1546V4.84325V2.90595C59.0533 2.28325 59.3992 1.9373 59.9873 1.9373C60.4025 1.9373 60.7484 2.28325 60.7484 2.73298V4.84325V5.12001C60.7484 5.1892 60.783 5.22379 60.8522 5.22379H61.1635H61.2327H61.5441C61.6133 5.22379 61.6479 5.1892 61.6479 5.12001V4.80866V4.60109V2.69839C61.6479 1.79893 61.1289 1.17622 60.1949 1.17622Z" fill="#F26322"/>
<path d="M64.4153 1.9719C64.865 1.9719 65.2109 2.21406 65.3493 2.5946C65.3493 2.5946 65.3493 2.5946 65.3493 2.62919C65.3493 2.66379 65.4185 2.69838 65.4531 2.69838H65.4877H65.6607H66.1104C66.1796 2.69838 66.2142 2.66379 66.2142 2.5946C66.2142 2.5946 66.2142 2.38703 66.0412 2.07568C66.0412 2.07568 66.0412 2.07568 66.0412 2.04109C66.0412 2.04109 66.0412 2.00649 66.0066 2.00649C65.799 1.66055 65.4877 1.48757 65.4877 1.48757C65.2109 1.3146 64.865 1.21082 64.4153 1.21082C63.239 1.21082 62.4434 2.11027 62.4434 3.2519C62.4434 4.35892 63.239 5.29298 64.4153 5.29298C64.8304 5.29298 65.1763 5.18919 65.4877 5.01622C65.4877 5.01622 65.799 4.84325 66.0066 4.4973C66.0066 4.4973 66.0066 4.46271 66.0412 4.46271C66.0412 4.46271 66.0412 4.42811 66.0758 4.42811C66.0758 4.42811 66.0758 4.42811 66.0758 4.39352C66.2488 4.11676 66.2488 3.8746 66.2488 3.8746C66.2488 3.80541 66.2142 3.77082 66.145 3.77082H65.4531C65.3839 3.77082 65.3493 3.80541 65.3493 3.84C65.3493 3.84 65.3493 3.84 65.3493 3.8746C65.2109 4.22055 64.865 4.4973 64.4153 4.4973C63.758 4.4973 63.3428 3.97838 63.3428 3.2519C63.3428 2.45622 63.758 1.9719 64.4153 1.9719Z" fill="#F26322"/>
<path d="M68.9127 1.17622C67.6673 1.17622 66.8716 2.11028 66.8716 3.2173C66.8716 4.32433 67.6673 5.25839 68.9127 5.25839C70.1581 5.25839 70.9537 4.32433 70.9537 3.2173C70.9537 2.11028 70.1581 1.17622 68.9127 1.17622ZM68.9127 4.42812C68.2554 4.42812 67.771 3.94379 67.771 3.18271C67.771 2.42163 68.2554 1.9373 68.9127 1.9373C69.57 1.9373 70.0543 2.42163 70.0543 3.18271C70.0543 3.94379 69.57 4.42812 68.9127 4.42812Z" fill="#F26322"/>
<path d="M56.943 1.28001H56.3203C56.2511 1.28001 56.2165 1.3146 56.2165 1.38379V1.83352C55.9743 1.41839 55.49 1.17622 54.9019 1.17622C53.7257 1.17622 53.0684 2.11028 53.0684 3.2173C53.0684 4.32433 53.7257 5.25839 54.9019 5.25839C55.5246 5.25839 55.9743 5.01622 56.2165 4.60109V4.67028V5.1546C56.2165 5.22379 56.2511 5.25839 56.3203 5.25839H56.943C57.0121 5.25839 57.0467 5.22379 57.0467 5.1546V4.84325V4.67028V1.83352V1.69514V1.38379C57.0467 1.3146 56.9776 1.28001 56.943 1.28001ZM55.0403 4.42812C54.3484 4.42812 53.9332 3.8746 53.9332 3.18271C53.9332 2.49082 54.3484 1.9373 55.0403 1.9373C55.7321 1.9373 56.1473 2.49082 56.1473 3.18271C56.1819 3.9092 55.7321 4.42812 55.0403 4.42812Z" fill="#F26322"/>
<path d="M7.12639 9.30594C7.12639 8.57946 7.78369 8.02594 8.47558 8.12973C12.2464 8.71784 15.1523 11.9697 15.1523 15.9135C15.1523 22.0713 10.2053 23.4205 8.06045 23.6973C7.54153 23.7665 7.0918 23.3513 7.0918 22.8324C7.12639 22.867 7.12639 12.8692 7.12639 9.30594Z" fill="#482B74"/>
<path d="M0.899459 16.4324H4.42811C5.91568 16.4324 7.12649 15.2216 7.12649 13.7341V1.55676C7.12649 1.07244 6.74595 0.691895 6.26162 0.691895H4.60108C2.07568 0.691895 0 2.73298 0 5.29298V15.533C0 16.0173 0.380541 16.4324 0.899459 16.4324Z" fill="#F26322"/>
<path d="M73.7905 20.6876C75.9353 19.5805 76.904 17.6086 76.9732 15.4984C76.9732 13.734 76.5234 12.2811 75.7277 11.1049L77.0769 9.5481C77.2845 9.27135 77.2499 8.89081 76.9732 8.68324L74.7937 7.0227C74.5169 6.81513 74.1364 6.88432 73.9288 7.16108L72.7872 8.68324C71.6456 8.16432 70.4002 7.88756 69.0856 7.88756C64.9342 7.88756 61.0942 10.413 61.0942 15.4638C61.0942 20.0649 64.2423 22.9362 69.1202 22.9362C71.784 22.9362 72.718 24.0432 72.718 25.4962C72.718 27.3297 70.9883 28.2292 69.051 28.2292C67.2175 28.2292 65.7299 27.6065 65.384 25.7384C65.3494 25.4616 65.0726 25.254 64.7959 25.254H61.9245C61.5786 25.254 61.3018 25.5654 61.3018 25.9113C61.5094 29.7859 64.1732 32.0692 69.0164 32.0692C73.0986 32.0692 77.0423 29.9243 77.0423 25.5308C77.0769 24.5968 77.0769 22.1751 73.7905 20.6876ZM69.051 19.0616C67.0099 19.0616 65.3494 17.4011 65.3494 15.36C65.3494 13.3189 67.0099 11.6584 69.051 11.6584C71.0921 11.6584 72.7526 13.3189 72.7526 15.36C72.7526 17.4011 71.0921 19.0616 69.051 19.0616Z" fill="#F26322"/>
</g>
<defs>
<clipPath id="clip0_1363_49204">
<rect width="77.2151" height="32" fill="white"/>
</clipPath>
</defs>
</svg>
