<svg width="600" height="84" viewBox="0 0 600 84" fill="none" xmlns="http://www.w3.org/2000/svg">
<path fill-rule="evenodd" clip-rule="evenodd" d="M113.719 82.9292C115.489 83.2598 117.349 83.4251 119.288 83.4251C121.227 83.4251 123.087 83.2598 124.857 82.9292C126.631 82.5986 128.35 82.0992 130.003 81.4345C131.649 80.7732 133.202 79.9811 134.652 79.0581C136.095 78.142 137.431 77.1019 138.654 75.9447C139.88 74.7841 140.979 73.5132 141.947 72.1287C142.921 70.7442 143.765 69.2495 144.474 67.6549C145.18 66.0638 145.711 64.4003 146.069 62.6645C146.42 60.9391 146.599 59.131 146.599 57.2367C146.599 55.3425 146.424 53.5998 146.069 51.9019C145.714 50.1903 145.18 48.5475 144.474 46.9735C143.765 45.3962 142.921 43.9152 141.947 42.5342C140.979 41.16 139.88 39.8926 138.654 38.732C137.431 37.5748 136.099 36.5347 134.652 35.6186C133.202 34.6956 131.652 33.9069 130.003 33.2422C128.35 32.5775 126.638 32.0781 124.874 31.7475C123.118 31.4168 121.289 31.2515 119.388 31.2515C117.487 31.2515 115.655 31.4168 113.898 31.7475C112.135 32.0781 110.423 32.5775 108.77 33.2422C107.124 33.9069 105.571 34.6956 104.121 35.6186C102.678 36.5347 101.341 37.5748 100.122 38.732C98.8927 39.896 97.7872 41.1669 96.8091 42.5376C95.8275 43.9152 94.9734 45.3996 94.2467 46.9804C93.5269 48.5509 92.9828 50.1937 92.6211 51.9054C92.2595 53.6067 92.0804 55.3838 92.0804 57.2367C92.0804 59.0896 92.2561 60.9356 92.6039 62.6714C92.9518 64.4175 93.4718 66.0845 94.1572 67.6653C94.8529 69.2598 95.6829 70.7511 96.6472 72.1391C97.6081 73.5201 98.6998 74.791 99.9225 75.9482C101.145 77.1053 102.481 78.142 103.924 79.0616C105.374 79.9811 106.924 80.7767 108.574 81.4379C110.23 82.1026 111.946 82.602 113.719 82.9326M122.295 71.9255C121.31 72.1115 120.308 72.2079 119.288 72.2079C118.269 72.2079 117.263 72.115 116.289 71.9255C115.317 71.7396 114.381 71.4571 113.485 71.0852C111.691 70.3378 110.12 69.2908 108.777 67.9477C108.112 67.2761 107.51 66.5425 106.976 65.7469C106.442 64.9514 105.981 64.1041 105.595 63.2018C104.81 61.3696 104.417 59.3824 104.417 57.2367C104.417 56.1725 104.517 55.1428 104.71 54.1543C104.906 53.1659 105.202 52.2153 105.598 51.3096C105.984 50.4279 106.445 49.591 106.976 48.8092C107.517 48.0136 108.116 47.2835 108.774 46.6257C109.435 45.9644 110.175 45.3652 110.985 44.8313C111.791 44.301 112.645 43.8498 113.544 43.4847C115.376 42.7408 117.325 42.3654 119.388 42.3654C121.451 42.3654 123.4 42.7408 125.233 43.4882C126.145 43.8601 126.999 44.3078 127.792 44.8279C128.591 45.3548 129.328 45.9541 129.996 46.6222C130.674 47.3007 131.273 48.0308 131.794 48.8092C132.314 49.5841 132.761 50.4244 133.137 51.3268C133.509 52.2222 133.791 53.1693 133.977 54.1612C134.163 55.1531 134.259 56.1794 134.259 57.2333C134.259 58.2872 134.16 59.3273 133.963 60.326C133.767 61.3248 133.474 62.2822 133.082 63.1984C132.696 64.1007 132.234 64.9479 131.701 65.7435C131.163 66.5494 130.561 67.283 129.899 67.9442C129.238 68.6055 128.498 69.2047 127.688 69.7386C126.9 70.2586 126.045 70.7063 125.133 71.0817C124.23 71.4537 123.28 71.7361 122.295 71.9221V71.9255ZM172.788 83.4251V12.2921H185.593V39.221H187.422C187.962 38.1361 188.809 37.0547 189.96 35.9698C191.114 34.885 192.653 33.9861 194.585 33.2766C196.517 32.5637 198.973 32.209 201.952 32.209C205.882 32.209 209.319 33.1079 212.267 34.9022C215.215 36.6965 217.502 39.1694 219.127 42.3206C220.753 45.4719 221.566 49.1467 221.566 53.345V83.4251H208.761V54.361C208.761 50.5657 207.831 47.7209 205.968 45.8267C204.104 43.929 201.446 42.9819 197.991 42.9819C194.062 42.9819 191.014 44.2872 188.847 46.8943C186.678 49.5014 185.596 53.1452 185.596 57.8188V83.4251H172.791H172.788ZM152.943 83.4251V12.2921H165.748V83.4251H152.943ZM68.9916 83.4251V43.5915H59.0625V33.0218H68.9916V23.6712C68.9916 20.2169 70.0248 17.4547 72.0913 15.3883C74.1577 13.3219 76.8509 12.2887 80.171 12.2887H91.6568V22.8584H84.6413C82.7437 22.8584 81.7965 23.8744 81.7965 25.9064V33.0183H91.6568V43.588H81.7965V83.4217H68.9916V83.4251ZM253.747 43.099C257.787 43.099 261.448 44.8003 264.093 47.5487C266.727 50.2867 268.36 54.0613 268.36 58.2252C268.36 62.389 266.731 66.1637 264.093 68.8982C261.444 71.6466 257.787 73.3479 253.747 73.3479C249.707 73.3479 246.046 71.6466 243.401 68.8982C240.766 66.1637 239.137 62.3856 239.137 58.2252C239.137 54.0648 240.766 50.2867 243.401 47.5487C246.049 44.8003 249.707 43.099 253.747 43.099ZM259.925 35.0469C257.101 33.7416 253.984 33.0218 250.709 33.0218C244.262 33.0218 238.417 35.8286 234.188 40.3679C229.935 44.9312 227.303 51.2441 227.303 58.2252C227.303 65.2062 229.935 71.5191 234.188 76.0825C238.417 80.6183 244.262 83.4286 250.709 83.4286C254.332 83.4286 257.762 82.5435 260.817 80.9661C264.003 79.3199 266.793 76.9194 268.98 73.9851L269.834 72.8382L280.851 82.9705L288.132 76.2753L280.345 69.1152V33.0252H269.937V43.4262L267.685 40.8741C265.511 38.4082 262.873 36.4141 259.922 35.0503L259.925 35.0469ZM467.893 26.609V15.0887L438.054 18.333V26.609H467.893ZM320.368 32.7807H307.305L331.978 83.4251H338.239L362.812 32.7807H349.845L336.304 63.0124H333.803L320.365 32.7807H320.368ZM421.161 82.3196C421.671 82.1784 422.153 82.0165 422.604 81.8375L422.521 70.9543L421.957 71.1747C421.468 71.3573 420.92 71.5501 420.321 71.743C419.033 72.1597 417.545 72.3698 415.857 72.3698C414.263 72.3698 412.83 72.1494 411.566 71.7086C410.257 71.2539 409.145 70.5651 408.229 69.6525C407.295 68.7191 406.6 67.5068 406.148 66.0087C405.721 64.5966 405.508 62.9297 405.508 61.0045V42.7202H420.772V32.7807H405.405V21.3844H396.443L394.105 32.7807H385.594V42.7202H393.123V60.8013C393.123 62.8918 393.247 64.8171 393.488 66.5666C393.733 68.3127 394.094 69.9039 394.577 71.3332C395.055 72.7555 395.634 74.0471 396.302 75.2042C396.963 76.3442 397.717 77.3533 398.558 78.2281C399.395 79.096 400.328 79.8537 401.351 80.4943C402.381 81.1383 403.5 81.6652 404.709 82.0751C405.931 82.4884 407.237 82.8018 408.621 83.0119C410.002 83.222 411.463 83.3253 412.995 83.3253C413.78 83.3253 414.621 83.2874 415.509 83.2151C416.429 83.1427 417.393 83.0291 418.409 82.881C419.415 82.7363 420.331 82.5469 421.147 82.3196H421.161ZM447.353 82.9292C449.123 83.2598 450.983 83.4251 452.922 83.4251C454.861 83.4251 456.721 83.2598 458.491 82.9292C460.265 82.5986 461.983 82.0992 463.636 81.4345C465.282 80.7732 466.836 79.9811 468.286 79.0581C469.729 78.142 471.065 77.1019 472.288 75.9447C473.514 74.7841 474.612 73.5132 475.58 72.1287C476.555 70.7442 477.399 69.2495 478.105 67.6549C478.811 66.0638 479.344 64.4003 479.699 62.6645C480.054 60.9391 480.23 59.131 480.23 57.2367C480.23 55.3425 480.054 53.5998 479.699 51.9019C479.344 50.1903 478.814 48.5475 478.105 46.9735C477.395 45.3962 476.555 43.9152 475.58 42.5342C474.612 41.16 473.514 39.8926 472.288 38.732C471.065 37.5748 469.732 36.5347 468.286 35.6186C466.836 34.6956 465.286 33.9069 463.636 33.2422C461.983 32.5775 460.271 32.0781 458.508 31.7475C456.752 31.4168 454.923 31.2515 453.022 31.2515C451.121 31.2515 449.288 31.4168 447.532 31.7475C445.769 32.0781 444.057 32.5775 442.407 33.2422C440.758 33.9069 439.208 34.6956 437.758 35.6186C436.311 36.5347 434.978 37.5748 433.759 38.732C432.53 39.896 431.424 41.1669 430.446 42.5376C429.465 43.9152 428.61 45.3996 427.884 46.9804C427.164 48.5509 426.62 50.1937 426.258 51.9054C425.897 53.6067 425.714 55.3838 425.714 57.2367C425.714 59.0896 425.89 60.9356 426.237 62.6714C426.585 64.4175 427.105 66.0845 427.791 67.6653C428.486 69.2598 429.316 70.7511 430.281 72.1391C431.242 73.5201 432.333 74.791 433.556 75.9482C434.779 77.1053 436.115 78.142 437.558 79.0616C439.008 79.9811 440.558 80.7767 442.207 81.4379C443.864 82.1026 445.579 82.602 447.353 82.9326V82.9292ZM455.928 71.9255C454.943 72.1115 453.941 72.2079 452.922 72.2079C451.902 72.2079 450.897 72.115 449.922 71.9255C448.951 71.7396 448.014 71.4571 447.119 71.0852C445.324 70.3378 443.757 69.2908 442.411 67.9477C441.746 67.2761 441.14 66.5425 440.609 65.7469C440.076 64.9514 439.614 64.1041 439.228 63.2018C438.443 61.3696 438.051 59.3824 438.051 57.2367C438.051 56.1725 438.147 55.1428 438.343 54.1543C438.54 53.1659 438.836 52.2153 439.232 51.3096C439.618 50.4279 440.079 49.591 440.609 48.8092C441.15 48.0136 441.749 47.2835 442.407 46.6257C443.068 45.9644 443.809 45.3652 444.618 44.8313C445.421 44.301 446.278 43.8498 447.177 43.4847C449.009 42.7408 450.959 42.3654 453.022 42.3654C455.085 42.3654 457.034 42.7408 458.866 43.4882C459.779 43.8601 460.633 44.3078 461.425 44.8279C462.224 45.3548 462.961 45.9541 463.629 46.6222C464.308 47.3007 464.907 48.0308 465.427 48.8092C465.947 49.5841 466.395 50.4244 466.77 51.3268C467.142 52.2222 467.425 53.1693 467.611 54.1612C467.8 55.1531 467.893 56.1794 467.893 57.2333C467.893 58.2872 467.793 59.3273 467.6 60.326C467.404 61.3248 467.111 62.2822 466.715 63.1984C466.329 64.1007 465.868 64.9479 465.334 65.7435C464.797 66.5494 464.194 67.283 463.533 67.9442C462.872 68.6055 462.131 69.2047 461.322 69.7386C460.533 70.2586 459.679 70.7063 458.766 71.0817C457.864 71.4537 456.913 71.7361 455.928 71.9221V71.9255ZM380.27 33.0218H367.262V83.4251H380.27V33.0218ZM565.611 43.099C569.65 43.099 573.311 44.8003 575.956 47.5487C578.591 50.2867 580.22 54.0613 580.22 58.2252C580.22 62.389 578.591 66.1637 575.953 68.8982C573.304 71.6466 569.647 73.3479 565.607 73.3479C561.567 73.3479 557.91 71.6466 555.261 68.8982C552.627 66.1637 550.998 62.3856 550.998 58.2252C550.998 54.0648 552.627 50.2867 555.261 47.5487C557.91 44.8003 561.567 43.099 565.607 43.099H565.611ZM571.789 35.0469C568.965 33.7416 565.848 33.0218 562.573 33.0218C556.126 33.0218 550.281 35.8286 546.052 40.3679C541.799 44.9312 539.167 51.2441 539.167 58.2252C539.167 65.2062 541.799 71.5191 546.052 76.0825C550.281 80.6183 556.126 83.4286 562.573 83.4286C566.196 83.4286 569.626 82.5435 572.681 80.9661C575.87 79.3199 578.657 76.9194 580.847 73.9851L581.701 72.8382L592.718 82.9705L599.999 76.2753L592.212 69.1152V33.0252H581.804V43.4262L579.552 40.8741C577.375 38.4082 574.741 36.4141 571.789 35.0503V35.0469ZM533.919 33.0218H520.91V83.4251H533.919V33.0218ZM495.721 33.0218H485.991V83.4251H498.621V60.1504C498.621 58.8038 498.727 57.5433 498.948 56.3654C499.168 55.1772 499.502 54.0923 499.947 53.1177C500.387 52.1568 500.901 51.2786 501.486 50.4899C502.075 49.6943 502.743 48.9848 503.487 48.358C504.221 47.7415 505.009 47.2077 505.846 46.76C506.687 46.3123 507.579 45.9472 508.515 45.6682C509.435 45.3962 510.365 45.1895 511.305 45.0586C512.259 44.9209 513.216 44.852 514.174 44.852H514.773V33.0183H514.277C512.707 33.0459 511.222 33.2353 509.834 33.5728C508.46 33.9103 507.172 34.3994 505.974 35.0434C504.765 35.6874 503.676 36.421 502.709 37.2407C501.755 38.0466 500.921 38.9352 500.215 39.8995L499.83 40.4299H497.298L495.724 33.0218H495.721Z" fill="white"/>
<path d="M5.45007 54.1739C2.66525 41.3496 32.6243 25.3882 51.9404 20.8387L52.5439 0C52.5439 0 0.520719 11.4824 0.00296809 41.0095C-0.147149 49.6121 5.44701 54.1739 5.44701 54.1739" fill="white"/>
<path d="M40.3605 49.5233L40.3513 30.0663C20.1743 36.1629 4.33545 50.3106 5.84581 62.8286C6.87518 71.3669 11.2868 75.9898 11.2868 75.9898C9.14532 66.1587 18.9826 56.8116 40.3574 49.5233" fill="#A3A8CF"/>
<path d="M27.5822 67.0257C17.0005 63.04 6.81397 57.8441 11.5227 47.6606C3.26936 57.311 3.75342 68.2052 11.2868 75.996C11.9762 76.7497 16.3112 81.5687 25.885 83.4253C26.3476 78.5541 27.0522 71.324 27.5791 67.0257" fill="white"/>
</svg>
